<?xml version="1.0" encoding="UTF-8"?>
<svg width="197px" height="197px" viewBox="0 0 197 197" version="1.1" xmlns="http://www.w3.org/2000/svg" xmlns:xlink="http://www.w3.org/1999/xlink">
    <!-- Generator: Sketch 52.6 (67491) - http://www.bohemiancoding.com/sketch -->
    <title>greenwhite</title>
    <desc>Created with Sketch.</desc>
    <g id="greenwhite" stroke="none" stroke-width="1" fill="none" fill-rule="evenodd">
        <circle id="Oval" fill="#63BDA2" cx="98.5" cy="99.5" r="92.5"></circle>
        <g id="Group-2" transform="translate(18.000000, 51.000000)" fill="#FFFFFF" fill-rule="nonzero">
            <path d="M69.404533,7.47995719 C69.2384424,7.48781842 69.0627106,7.49894184 68.8779262,7.51346545 C67.3785096,7.63131604 65.4311499,7.95939971 63.1929466,8.48224009 C58.2171798,9.64457053 52.2809685,11.6452328 46.3720549,14.2228268 C31.8035421,20.5779223 19.6163197,29.3050926 12.9976931,39.1916323 C10.2195705,43.3414388 8.36437852,47.6460945 7.41343866,52.1232779 C6.98513634,54.1397966 4.99670766,55.4286775 2.97215887,55.002074 C0.947610091,54.5754705 -0.346403347,52.5949286 0.0818989644,50.5784099 C1.23361456,45.1559409 3.46682825,39.9741506 6.7628616,35.0507175 C14.3060264,23.7831535 27.6013798,14.2624597 43.3657552,7.38570339 C49.6821747,4.63034671 56.0501015,2.48418474 61.4818636,1.2153346 C67.1562047,-0.110181586 71.3219584,-0.437599956 73.7681431,0.664080654 C74.8297546,1.1421953 75.5048588,1.91808742 75.9722536,2.85041357 C76.2455154,3.39549682 76.4390295,3.99231479 76.5829276,4.65583704 C76.8137251,5.7200569 76.9250533,7.02069312 76.9247192,8.48856697 C76.9240306,11.5132366 76.4533728,15.1190063 75.5406258,18.6713211 C74.5999661,22.3322691 73.2722266,25.7350452 71.5509874,28.7509095 C76.866676,28.563663 83.1258661,28.6072976 90.3362348,28.8799292 C101.999321,12.9789193 115.685147,9.28812231 130.034107,18.725594 C135.207692,22.1283188 140.874143,26.9216159 145.5579,32.0255029 C151.235479,38.2123576 155.247193,44.546601 156.914209,50.6407936 C157.860318,54.0995284 158.656063,58.1735816 158.909648,61.4283443 C159.080256,63.618089 159.019672,65.4563698 158.638407,66.9739932 C157.971984,69.626689 156.194875,71.5984565 153.299084,71.5984565 C152.440653,71.5984565 149.923594,70.7926724 145.820752,69.2838502 C145.953108,74.309277 145.301976,79.617299 143.86873,85.1927631 C143.355442,87.1895004 141.314219,88.3937243 139.30953,87.8824726 C137.304842,87.3712208 136.095822,85.338094 136.60911,83.3413567 C138.18284,77.2193978 138.687584,71.5710757 138.126149,66.3653964 C131.207313,63.6801821 124.631304,60.9513387 119.805049,58.7089351 C109.210362,53.7863678 102.330186,48.2935926 100.78318,42.6579554 C99.3534316,37.4494799 104.755511,32.4451774 111.507401,31.3395042 C118.992973,30.113685 127.218684,33.3915315 134.573659,41.4642738 C139.831519,47.2352452 143.246296,53.7432588 144.822915,60.9339428 C147.064472,61.7811457 149.137223,62.5440311 150.820044,63.1420811 C151.057982,63.2266411 151.286154,63.3071969 151.503805,63.3834951 C151.49872,62.970055 151.477444,62.5081999 151.438305,62.0058434 C151.225856,59.2790721 150.515925,55.6443668 149.68396,52.6029106 C147.189383,43.4833632 136.703013,32.0563715 125.904763,24.9542423 C114.785351,17.6408803 105.089186,20.5838462 95.3099695,34.8002458 C94.579219,35.8625642 93.3502479,36.4745973 92.0585597,36.4194625 C82.1291881,35.9956341 74.0160065,35.9956341 67.7391074,36.4145356 C66.8086776,36.4766297 65.9508701,36.5255666 65.1371442,36.561967 C63.7752795,37.6987646 62.296725,38.6848099 60.7004693,39.499816 C53.0652557,43.3981552 44.5904482,46.0147075 37.6970798,46.6951188 C34.1081252,47.0493673 31.0314209,46.873125 28.6438098,46.0786342 C25.3540236,44.9839395 23.1890353,42.5968034 23.1890353,39.2560799 C23.1890353,36.0044327 25.3887575,33.4609221 28.9303077,31.7634121 C31.918637,30.331068 36.0598688,29.389984 41.1874931,28.97128 C46.392722,28.546239 49.4758877,28.5707509 54.701314,28.8993147 C54.8843505,28.9108374 54.8843505,28.9108374 55.0667952,28.9223439 C57.8835768,29.0999447 59.940918,29.1898866 62.0452134,29.1773084 C64.891677,26.0791595 67.0006152,21.8030605 68.2807996,16.8207183 C69.0406702,13.8633823 69.4303685,10.8778539 69.4309128,8.48687453 C69.4309955,8.12357192 69.4216785,7.78584802 69.404533,7.47995719 Z M41.8566942,36.267642 C37.4714167,36.5870419 34.1121223,37.2679581 32.0146283,38.1646978 C31.6008721,38.3415906 31.2629633,38.5158139 31,38.6784348 C32.2737972,39.0117956 34.3335835,39.1010537 36.9032022,38.8748209 C40.7881648,38.5327835 45.3698616,37.5319991 50,36.0185017 C47.3801775,35.9615537 45.0683255,36.0337241 41.8566942,36.267642 Z M129.009748,46.954109 C123.251855,40.649959 117.481503,38.3562383 112.611781,39.1517171 C110.865981,39.4368971 109.399132,40.1266924 108.487741,40.9688835 C108.264803,41.1748942 108.102119,41.3663683 108,41.5209312 C109.13731,44.3772943 114.518626,48.5422995 122.922569,52.4373197 C126.465025,54.0791606 131.032757,56.0125654 136,58 C134.436387,54.0194907 132.105732,50.343812 129.009748,46.954109 Z" id="Line"></path>
        </g>
    </g>
</svg>
