<?xml version="1.0" standalone="no"?>
<!DOCTYPE svg PUBLIC "-//W3C//DTD SVG 20010904//EN"
 "http://www.w3.org/TR/2001/REC-SVG-20010904/DTD/svg10.dtd">
<svg version="1.0" xmlns="http://www.w3.org/2000/svg"
 width="197.000000pt" height="197.000000pt" viewBox="0 0 197.000000 197.000000"
 preserveAspectRatio="xMidYMid meet">
<metadata>
Created by potrace 1.11, written by Peter Selinger 2001-2013
</metadata>
<g transform="translate(0.000000,197.000000) scale(0.100000,-0.100000)"
fill="#000000" stroke="none">
<path d="M795 1884 c-343 -76 -609 -329 -707 -669 -20 -68 -23 -103 -23 -240
0 -137 3 -172 23 -240 92 -320 337 -565 657 -657 68 -20 103 -23 240 -23 137
0 172 3 240 23 320 92 565 337 657 657 20 68 23 103 23 240 0 186 -16 259 -90
410 -114 233 -330 412 -585 486 -101 29 -333 36 -435 13z m134 -449 c26 -25
11 -167 -25 -237 l-15 -28 97 0 97 0 48 50 c80 84 170 115 260 90 102 -28 268
-179 324 -295 35 -72 58 -175 48 -217 -12 -50 -31 -55 -110 -32 -22 6 -23 3
-23 -42 -1 -62 -15 -125 -31 -135 -7 -4 -22 -3 -32 3 -16 8 -18 17 -13 46 4
21 9 64 12 97 l6 60 -123 53 c-135 57 -209 105 -239 155 -27 43 -25 61 9 99
25 28 35 32 93 36 52 3 73 0 106 -17 86 -44 153 -121 189 -220 17 -47 26 -57
57 -67 43 -15 44 -10 21 80 -28 106 -139 238 -258 306 -96 55 -172 37 -261
-61 l-53 -59 -137 0 c-127 0 -140 -2 -179 -24 -120 -70 -313 -100 -357 -56
-27 27 -26 71 3 97 40 36 86 46 227 48 l135 2 22 33 c39 56 68 190 42 190 -36
0 -173 -45 -258 -85 -174 -83 -279 -176 -333 -295 -49 -108 -54 -113 -81 -86
-49 49 88 259 233 357 102 68 263 139 375 164 64 15 102 12 124 -10z"/>
<path d="M520 1087 l-35 -12 50 -2 c28 -2 73 3 100 11 l50 14 -65 0 c-36 0
-81 -5 -100 -11z"/>
<path d="M1273 1063 c-44 -17 36 -87 164 -143 52 -23 97 -39 100 -36 3 3 -6
25 -20 49 -29 50 -96 113 -133 127 -26 10 -90 12 -111 3z"/>
</g>
</svg>
