<?xml version="1.0" standalone="no"?>
<!DOCTYPE svg PUBLIC "-//W3C//DTD SVG 20010904//EN"
 "http://www.w3.org/TR/2001/REC-SVG-20010904/DTD/svg10.dtd">
<svg version="1.0" xmlns="http://www.w3.org/2000/svg"
 width="500.000000pt" height="500.000000pt" viewBox="0 0 500.000000 500.000000"
 preserveAspectRatio="xMidYMid meet">
<metadata>
Created by potrace 1.14, written by Peter Selinger 2001-2017
</metadata>
<g transform="translate(0.000000,500.000000) scale(0.100000,-0.100000)"
fill="#000000" stroke="none">
<path d="M1690 4034 c-278 -32 -510 -167 -685 -399 -53 -71 -120 -201 -149
-286 -54 -165 -72 -423 -41 -597 17 -101 54 -244 66 -256 5 -6 9 -16 9 -23 0
-12 16 -52 53 -133 29 -61 106 -193 167 -285 206 -307 541 -635 960 -936 107
-78 276 -189 286 -189 3 0 18 -8 32 -18 15 -10 47 -24 72 -31 72 -19 132 8
350 157 314 215 488 358 736 607 330 331 536 667 615 1000 58 245 50 473 -23
705 -79 249 -279 485 -501 588 -94 45 -107 49 -242 84 -68 17 -313 17 -390 -1
-186 -42 -306 -109 -432 -237 l-72 -74 -73 73 c-127 128 -242 192 -419 235
-50 12 -261 23 -319 16z m301 -468 c137 -33 237 -105 358 -259 68 -87 97 -107
154 -107 50 0 75 19 162 125 149 183 283 254 480 254 163 0 303 -58 407 -168
66 -69 126 -172 149 -256 19 -67 19 -322 0 -390 -51 -185 -168 -416 -286 -563
-241 -301 -519 -556 -852 -781 l-63 -42 -73 50 c-375 252 -717 580 -917 877
-147 217 -240 473 -240 661 0 173 72 345 194 465 53 51 192 127 237 129 13 0
33 4 44 9 31 13 184 11 246 -4z"/>
</g>
</svg>
